<?xml version="1.0" standalone="no"?><!DOCTYPE svg PUBLIC "-//W3C//DTD SVG 1.1//EN"
    "http://www.w3.org/Graphics/SVG/1.1/DTD/svg11.dtd">
<svg t="1705079294228" class="icon" viewBox="0 0 1024 1024" version="1.1" xmlns="http://www.w3.org/2000/svg"
     p-id="11203" data-darkreader-inline-fill="" width="32" height="32">
  <path
      d="M512 938.666667c235.641905 0 426.666667-191.024762 426.666667-426.666667S747.641905 85.333333 512 85.333333 85.333333 276.358095 85.333333 512 276.358095 938.666667 512 938.666667zM405.333333 341.333333c23.552 0 42.666667 19.114667 42.666667 42.666667v85.333333a42.666667 42.666667 0 1 1-85.333333 0v-85.333333c0-23.552 19.090286-42.666667 42.666666-42.666667z m213.333334 0c23.552 0 42.666667 19.114667 42.666666 42.666667v85.333333a42.666667 42.666667 0 1 1-85.333333 0v-85.333333c0-23.552 19.090286-42.666667 42.666667-42.666667zM512 717.336381a205.433905 205.433905 0 0 0 197.607619-149.308952l56.441905 15.945142c-31.329524 110.811429-133.168762 192.024381-254.049524 192.024381s-222.72-81.212952-254.049524-192.024381l56.441905-15.945142A205.433905 205.433905 0 0 0 512 717.336381z"
      p-id="11204"></path>
</svg>
